<?xml version="1.0" encoding="UTF-8"?>
<svg viewBox="0 0 308 154" xmlns="http://www.w3.org/2000/svg">
 <defs>
  <filter id="a" x="-.04848" y="-.10946" width="1.097" height="1.2189">
   <feGaussianBlur stdDeviation="5.58425"/>
  </filter>
 </defs>
 <g transform="translate(-515 -123.09)">
  <path d="m720 123.09c-25.36 0-47.387 14.347-58.438 35.344-11.075-11.307-26.497-18.344-43.562-18.344-19.173 0-36.283 8.8718-47.469 22.719-5.8654-4.8091-13.36-7.7188-21.531-7.7188-18.768 0-34 15.232-34 34s15.232 34 34 34c4.002 0 7.8392-0.69697 11.406-1.9688 8.297 23.837 30.941 40.969 57.594 40.969 9.2122 0 17.948-2.0575 25.781-5.7188 6.0278 12.264 18.639 20.719 33.219 20.719 15.318 0 28.474-9.3154 34.094-22.594 2.9168 0.39456 5.8818 0.59375 8.9062 0.59375 13.637 0 26.321-4.1549 36.844-11.25 6.774 8.6616 17.316 14.25 29.156 14.25 20.424 0 37-16.576 37-37s-16.576-37-37-37h-0.21875c-2.557-34.1-31.031-61-65.781-61z" fill="#e4eaed"/>
  <path d="m720 133c-21.626 0-40.297 12.219-49.688 30.062-1.4763 2.7911-4.1953 4.7108-7.3196 5.1677s-6.2792-0.60371-8.4929-2.8552c-9.2964-9.4917-22.156-15.375-36.5-15.375-16.119 0-30.398 7.4155-39.781 19.031-1.6573 2.0496-4.0635 3.3537-6.6854 3.6235s-5.2433-0.51694-7.2833-2.186c-4.1817-3.4286-9.4293-5.4688-15.25-5.4688-13.411 0-24.094 10.682-24.094 24.094s10.682 24.094 24.094 24.094c2.8526 0 5.5645-0.47322 8.0938-1.375 2.482-0.88046 5.2125-0.73584 7.5876 0.40187s4.1991 3.1748 5.0686 5.6606c6.9427 19.946 25.84 34.312 48.25 34.312 7.7381 0 15.03-1.7133 21.594-4.7812 4.879-2.2741 10.681-0.23373 13.062 4.5938 4.4111 8.9748 13.591 15.187 24.344 15.188 11.304 0 20.863-6.83 24.969-16.531 1.7346-4.1161 6.0103-6.5612 10.438-5.9688 2.4723 0.33443 5.004 0.5 7.5938 0.5 11.626 0 22.362-3.5274 31.312-9.5625 4.3152-2.9082 10.145-1.9798 13.344 2.125 4.9763 6.363 12.619 10.437 21.344 10.438 15.067 0 27.094-12.026 27.094-27.094s-12.026-27.094-27.094-27.094h-0.15625c-5.204 0.03381-9.546-3.9668-9.9375-9.1562-2.1762-29.022-26.265-51.844-55.906-51.844z" fill="#fff" filter="url(#a)"/>
  <path d="m560 218.59s-4.75-27.5 3.5-32c-12.75 5-10.5 35.25-10.5 35.25l7-3.25z" fill="#e4eaed"/>
  <path d="m758 242.59s-4.75-27.5 3.5-32c-12.75 5-10.5 35.25-10.5 35.25l7-3.25z" fill="#e4eaed"/>
  <path d="m663.28 159.99s22.288 15.207 19.33 26.886c6.8986-12.961-15.166-32.207-15.166-32.207l-4.1647 5.3209z" fill="#e4eaed"/>
  <path d="m677.33 205.09c-17.293 0-31.327 14.035-31.327 31.327 0 2.5225 0.30931 4.9787 0.87314 7.3291-0.00324-0.18536-0.02646-0.36951-0.02646-0.55563 3e-5 -17.293 14.035-31.327 31.327-31.327 14.767 0 27.15 10.24 30.454 23.998-0.29764-17.036-14.194-30.772-31.301-30.772z" fill="#e4eaed"/>
 </g>
</svg>
